<svg viewBox="0 0 86.87 98.65" xmlns="http://www.w3.org/2000/svg"><g fill="#fff" opacity=".3"><path d="m38 58.71h-2.83v-8.34h1.58v2.35h1.25c1.33 0 1.94.83 1.94 2.12v1.76c-.01 1.28-.62 2.11-1.94 2.11zm.35-3.7c0-.55-.21-.88-.78-.88h-.81v3.17h.81c.57 0 .78-.33.78-.88z"/><path d="m43.16 58.71c-1.33 0-1.94-.83-1.94-2.11v-3.88h1.59v3.7c0 .55.21.88.77.88h.81v-4.58h1.61v6z"/><path d="m49.47 58.71h-2.2v-1.41h2.17c.56 0 .77-.11.77-.41s-.31-.33-.77-.4l-.44-.06c-.73-.1-1.76-.38-1.76-1.81s1-1.9 2.33-1.9h2v1.41h-2c-.52 0-.7.09-.7.39s.27.28.68.34l.49.07c.8.12 1.76.45 1.76 1.82-.01 1.53-.8 1.96-2.33 1.96z"/><path d="m53.09 52v-1.63h1.58v1.63zm0 6.75v-6h1.58v6z"/><path d="m59.26 58.71v-3.71c0-.55-.22-.88-.78-.88h-.81v4.58h-1.59v-6h2.82c1.33 0 1.94.83 1.94 2.12v3.87z"/><path d="m63.72 56.36a.85.85 0 0 0 1 .94h1.88v1.41h-2a2.18 2.18 0 0 1 -2.44-2.38v-1.2a2.17 2.17 0 0 1 2.3-2.41h.23a2.14 2.14 0 0 1 2.23 2.41v1.23zm1.59-1.36c0-.55-.19-1-.72-1h-.15c-.53 0-.72.45-.72 1v.21h1.59z"/><path d="m70.22 58.71h-2.22v-1.41h2.2c.55 0 .76-.11.76-.41s-.31-.33-.76-.4l-.42-.06c-.72-.1-1.76-.38-1.76-1.81s1-1.9 2.33-1.9h2v1.41h-2c-.51 0-.7.09-.7.39s.27.28.68.34l.49.07c.8.12 1.77.45 1.77 1.82-.04 1.53-.87 1.96-2.37 1.96z"/><path d="m75.81 58.71h-2.19v-1.41h2.17c.55 0 .76-.11.76-.41s-.3-.33-.76-.4l-.41-.06c-.73-.1-1.76-.38-1.76-1.81s1-1.9 2.32-1.9h2v1.41h-2c-.52 0-.71.09-.71.39s.27.28.68.34l.5.07c.8.12 1.76.45 1.76 1.82-.03 1.53-.85 1.96-2.36 1.96z"/><path d="m35.17 66.06v-1.59h1.58v1.59zm0 6.75v-6h1.58v6z"/><path d="m41.34 72.81v-3.7c0-.55-.22-.88-.78-.88h-.81v4.58h-1.59v-6h2.84c1.33 0 1.94.84 1.94 2.12v3.87z"/><path d="m46.6 72.81a2.12 2.12 0 0 1 -2.39-2.35v-1.29a2.12 2.12 0 0 1 2.39-2.35h1.4v1.41h-1.29c-.72 0-.91.4-.91 1v1.17c0 .64.21 1 .92 1h1.28v1.41z"/><path d="m51.1 72.81c-1.33 0-1.94-.83-1.94-2.11v-3.88h1.59v3.7c0 .55.21.88.77.88h.81v-4.58h1.59v6z"/><path d="m58.15 72.81h-2.82v-8.34h1.59v2.35h1.23c1.33 0 1.94.84 1.94 2.12v1.76c0 1.3-.61 2.11-1.94 2.11zm.35-3.7c0-.55-.21-.88-.77-.88h-.81v3.17h.81c.56 0 .77-.33.77-.88z"/><path d="m63 72.81c-1.16 0-1.87-.48-1.87-1.76s.79-1.76 2.11-1.76h1.06v-.24c0-.54-.26-.76-.86-.76h-1.82v-1.47h2.1c1.73 0 2.19.78 2.19 2.23v3.76zm1.3-2.38h-.8c-.56 0-.79.18-.79.56s.22.53.67.53h.92z"/><path d="m69.3 72.81c-1.11 0-1.74-.58-1.74-1.93v-2.65h-.82v-1.41h.82v-1.76h1.59v1.76h1.41v1.41h-1.41v2.45c0 .48.21.67.6.67h.81v1.46z"/><path d="m71.44 66.06v-1.59h1.56v1.59zm0 6.75v-6h1.56v6z"/><path d="m76.87 72.81h-.33a2 2 0 0 1 -2.22-2.29v-1.41a2 2 0 0 1 2.22-2.29h.33a2 2 0 0 1 2.22 2.29v1.41a2 2 0 0 1 -2.22 2.29zm.63-3.76c0-.54-.24-.84-.69-.84h-.21c-.45 0-.69.3-.69.84v1.53c0 .54.24.85.69.85h.21c.45 0 .69-.31.69-.85z"/><path d="m83.56 72.81v-3.7c0-.55-.21-.88-.78-.88h-.78v4.58h-1.62v-6h2.82c1.33 0 1.94.84 1.94 2.12v3.87z"/><path d="m57.76 19c.25 1.4.8 2.46 2.11 2.86 1.55.45 3.51.35 4.47-.9a1.94 1.94 0 0 0 .25-1.66c-.25-.85-1-1.05-2.51-1.35-1.31-.31-4.52-.66-6.23-2a4.73 4.73 0 0 1 -1.35-5.27c.8-2.36 3.21-3.41 5-3.66a8.57 8.57 0 0 1 7.24 1.98 5.63 5.63 0 0 1 1.46 4h-3.71a3.64 3.64 0 0 0 -.31-1.31 2.85 2.85 0 0 0 -2.66-1.69 3.15 3.15 0 0 0 -3.21 1.35 1.5 1.5 0 0 0 .15 1.51c.81.9 2.36.95 3.72 1.2 2.31.4 4.81.8 5.92 2.71a5.5 5.5 0 0 1 -.25 5.72 7.26 7.26 0 0 1 -2.06 1.86 10.54 10.54 0 0 1 -6.32.7 6.35 6.35 0 0 1 -4.57-2.81 5.75 5.75 0 0 1 -1-3.26z"/><path d="m40.9 14.2h6.32a3.65 3.65 0 0 0 -2.46-3.51 4.15 4.15 0 0 0 -3.91.8c-1.06 1-1.41 3-1.41 4.22.05 2.35.51 4 1.86 5a4.14 4.14 0 0 0 4.77.2 3.59 3.59 0 0 0 1.3-2h4.47a8 8 0 0 1 -2.84 4.68 8.76 8.76 0 0 1 -8 1.15c-5.37-2-6.22-7.13-5.82-10.19a11.34 11.34 0 0 1 1.3-3.71 7.84 7.84 0 0 1 5.52-3.84 8 8 0 0 1 7.23 2.4 11.91 11.91 0 0 1 2.31 4.62 12.05 12.05 0 0 1 .3 3.31h-10.94z"/><path d="m86.31 20.48v-5.43a22.14 22.14 0 0 0 -.31-4.11c-.3-1.31-1.45-3.46-5.17-3.91-.7 0-1.45 0-2.2 0a11.93 11.93 0 0 0 -3.63.6 5.54 5.54 0 0 0 -3.34 5.37h4a2.6 2.6 0 0 1 1.55-2.51 4.41 4.41 0 0 1 4.07.6 1.76 1.76 0 0 1 .45 1.71c-.25 1.05-1.41 1.4-3.16 1.65-.61.1-1.31.15-2.06.25-2.1.25-5.12 1.31-5.82 4.37a5 5 0 0 0 1.81 4.87 7.23 7.23 0 0 0 4.36 1.35 9 9 0 0 0 1.71-.15 8.2 8.2 0 0 0 3.56-1.81 5.49 5.49 0 0 0 .5 1.46h4.22a10.14 10.14 0 0 1 -.56-4.26zm-4.51-.66a3.59 3.59 0 0 1 -3.21 2.06 3.28 3.28 0 0 1 -1 .05 2.37 2.37 0 0 1 -2.21-1.25 2 2 0 0 1 .1-2c.6-1.06 1.66-1.26 3.11-1.56a9.92 9.92 0 0 0 1.5-.3 4 4 0 0 0 1.91-.82 20.09 20.09 0 0 1 -.2 3.81z"/><path d="m20.27 14.21h6.3a2.65 2.65 0 0 0 -.87-2.37 3.68 3.68 0 0 0 -4.7-.77c-1.22.65-2.89 3.36-1.86 7.19s5.55 4.65 8.28 3.76a5.55 5.55 0 0 0 3.36-2.72 7 7 0 0 0 .35-2h-10.86v-3.1z"/><path d="m19.45.48a15.61 15.61 0 1 0 8 25.3 10 10 0 0 1 -5.64-.3c-7-2.42-8.28-8.89-6.54-13.42a8.14 8.14 0 0 1 12.07-3.6c4.16 3 3.79 8.66 3.78 8.85a15.61 15.61 0 0 0 -11.67-16.83zm-12.3 17.32a2 2 0 1 1 2-2 2 2 0 0 1 -2 2z"/><path d="m37.47 86.91a2.12 2.12 0 0 1 -2.39-2.35v-1.29a2.12 2.12 0 0 1 2.39-2.35h1.43v1.41h-1.33c-.72 0-.9.4-.9 1v1.18c0 .63.21 1 .91 1h1.32v1.41z"/><path d="m41.38 84.56a.85.85 0 0 0 1 .94h1.92v1.41h-2a2.17 2.17 0 0 1 -2.43-2.38v-1.2a2.17 2.17 0 0 1 2.29-2.41h.24a2.14 2.14 0 0 1 2.23 2.41v1.23zm1.62-1.35c0-.55-.18-1-.71-1h-.16c-.52 0-.71.45-.71 1v.22h1.58z"/><path d="m49 86.91v-3.7c0-.55-.22-.88-.78-.88h-.81v4.58h-1.57v-6h2.82c1.33 0 1.94.84 1.94 2.12v3.87z"/><path d="m53.93 86.91c-1.12 0-1.74-.58-1.74-1.93v-2.65h-.82v-1.41h.82v-1.76h1.58v1.76h1.41v1.41h-1.41v2.45c0 .48.22.67.6.67h.81v1.46z"/><path d="m58.43 82.45c-.57 0-.78.27-.78.82v3.64h-1.58v-3.91c0-1.28.61-2.12 1.94-2.12h1.05v1.53z"/><path d="m61.37 84.56a.85.85 0 0 0 1 .94h1.91v1.41h-2a2.17 2.17 0 0 1 -2.43-2.38v-1.2a2.16 2.16 0 0 1 2.29-2.41h.24a2.15 2.15 0 0 1 2.23 2.41v1.23zm1.63-1.35c0-.55-.19-1-.71-1h-.16c-.53 0-.71.45-.71 1v.22h1.58z"/><path d="m38.59 98.58h-.39c-.07 0-.12-.06-.14-.14l-.26-.84h-1.89l-.26.84c0 .08-.06.14-.14.14h-.39a.1.1 0 0 1 -.09-.14l1.49-4.7a.16.16 0 0 1 .15-.14h.33c.08 0 .13.06.16.14l1.49 4.7a.1.1 0 0 1 -.06.14zm-1.73-4-.77 2.42h1.53z"/><path d="m41.64 98.58h-.33a.13.13 0 0 1 -.13-.14v-.11a1.4 1.4 0 0 1 -.9.32c-.74 0-1-.46-1-1.19v-2.25a.13.13 0 0 1 .13-.14h.33a.13.13 0 0 1 .13.14v2.25c0 .37.09.62.54.62a1.61 1.61 0 0 0 .76-.26v-2.61a.13.13 0 0 1 .13-.14h.33a.13.13 0 0 1 .13.14v3.23a.13.13 0 0 1 -.12.14z"/><path d="m43.72 98.65a5 5 0 0 1 -1-.13c-.09 0-.14-.07-.14-.15v-.3c0-.07.06-.11.14-.1a6 6 0 0 0 1 .13c.4 0 .67-.13.67-.48s-.24-.43-.53-.51l-.39-.1a.92.92 0 0 1 -.83-1c0-.7.41-1 1.21-1a4.1 4.1 0 0 1 .86.1c.08 0 .13.06.13.14v.28a.11.11 0 0 1 -.13.11 5.7 5.7 0 0 0 -.85-.08c-.47 0-.63.18-.63.45s.21.38.48.45l.38.1c.44.11.89.31.89 1s-.46 1.09-1.26 1.09z"/><path d="m47.28 98.59a4.43 4.43 0 0 1 -.61.06c-.47 0-.84-.24-.84-1v-2.09h-.35a.13.13 0 0 1 -.14-.13v-.22a.14.14 0 0 1 .14-.14h.35v-.77a.14.14 0 0 1 .14-.14h.33a.13.13 0 0 1 .13.14v.77h.85a.13.13 0 0 1 .13.14v.22a.13.13 0 0 1 -.13.13h-.85v2.16a.36.36 0 0 0 .37.4 3.44 3.44 0 0 0 .5-.05c.07 0 .11 0 .11.11v.28a.13.13 0 0 1 -.13.13z"/><path d="m49.46 95.66h-.1a.93.93 0 0 0 -.76.56v2.23a.14.14 0 0 1 -.14.14h-.32a.14.14 0 0 1 -.14-.14v-3.24a.14.14 0 0 1 .14-.14h.32a.14.14 0 0 1 .14.14v.32a.78.78 0 0 1 .74-.53h.12a.13.13 0 0 1 .12.14v.38a.11.11 0 0 1 -.12.14z"/><path d="m50.67 94.2h-.33a.13.13 0 0 1 -.13-.13v-.33a.13.13 0 0 1 .13-.14h.33a.13.13 0 0 1 .13.14v.33a.13.13 0 0 1 -.13.13zm0 4.38h-.33a.13.13 0 0 1 -.13-.14v-3.23a.13.13 0 0 1 .13-.14h.33a.13.13 0 0 1 .13.14v3.23a.13.13 0 0 1 -.13.14z"/><path d="m53.89 98.58h-.33a.13.13 0 0 1 -.13-.14v-.07a1.59 1.59 0 0 1 -.84.28.94.94 0 0 1 -1.05-1c0-.73.41-1.06 1.17-1.06h.72v-.37c0-.41-.16-.67-.63-.67a4.18 4.18 0 0 0 -.92.12c-.1 0-.13 0-.13-.12v-.25a.15.15 0 0 1 .13-.15 3 3 0 0 1 1-.15c.83 0 1.17.42 1.17 1.23v2.21a.13.13 0 0 1 -.16.14zm-.46-1.51h-.7c-.43 0-.6.19-.6.56s.18.49.53.49a1.82 1.82 0 0 0 .77-.24z"/></g></svg>