<svg viewBox="0 0 86.87 30" xmlns="http://www.w3.org/2000/svg">
    <g fill="#fff" opacity=".3">
        <path d="m57.76 19c.25 1.4.8 2.46 2.11 2.86 1.55.45 3.51.35 4.47-.9a1.94 1.94 0 0 0 .25-1.66c-.25-.85-1-1.05-2.51-1.35-1.31-.31-4.52-.66-6.23-2a4.73 4.73 0 0 1 -1.35-5.27c.8-2.36 3.21-3.41 5-3.66a8.57 8.57 0 0 1 7.24 1.98 5.63 5.63 0 0 1 1.46 4h-3.71a3.64 3.64 0 0 0 -.31-1.31 2.85 2.85 0 0 0 -2.66-1.69 3.15 3.15 0 0 0 -3.21 1.35 1.5 1.5 0 0 0 .15 1.51c.81.9 2.36.95 3.72 1.2 2.31.4 4.81.8 5.92 2.71a5.5 5.5 0 0 1 -.25 5.72 7.26 7.26 0 0 1 -2.06 1.86 10.54 10.54 0 0 1 -6.32.7 6.35 6.35 0 0 1 -4.57-2.81 5.75 5.75 0 0 1 -1-3.26z"/>
        <path d="m40.9 14.2h6.32a3.65 3.65 0 0 0 -2.46-3.51 4.15 4.15 0 0 0 -3.91.8c-1.06 1-1.41 3-1.41 4.22.05 2.35.51 4 1.86 5a4.14 4.14 0 0 0 4.77.2 3.59 3.59 0 0 0 1.3-2h4.47a8 8 0 0 1 -2.84 4.68 8.76 8.76 0 0 1 -8 1.15c-5.37-2-6.22-7.13-5.82-10.19a11.34 11.34 0 0 1 1.3-3.71 7.84 7.84 0 0 1 5.52-3.84 8 8 0 0 1 7.23 2.4 11.91 11.91 0 0 1 2.31 4.62 12.05 12.05 0 0 1 .3 3.31h-10.94z"/>
        <path d="m86.31 20.48v-5.43a22.14 22.14 0 0 0 -.31-4.11c-.3-1.31-1.45-3.46-5.17-3.91-.7 0-1.45 0-2.2 0a11.93 11.93 0 0 0 -3.63.6 5.54 5.54 0 0 0 -3.34 5.37h4a2.6 2.6 0 0 1 1.55-2.51 4.41 4.41 0 0 1 4.07.6 1.76 1.76 0 0 1 .45 1.71c-.25 1.05-1.41 1.4-3.16 1.65-.61.1-1.31.15-2.06.25-2.1.25-5.12 1.31-5.82 4.37a5 5 0 0 0 1.81 4.87 7.23 7.23 0 0 0 4.36 1.35 9 9 0 0 0 1.71-.15 8.2 8.2 0 0 0 3.56-1.81 5.49 5.49 0 0 0 .5 1.46h4.22a10.14 10.14 0 0 1 -.56-4.26zm-4.51-.66a3.59 3.59 0 0 1 -3.21 2.06 3.28 3.28 0 0 1 -1 .05 2.37 2.37 0 0 1 -2.21-1.25 2 2 0 0 1 .1-2c.6-1.06 1.66-1.26 3.11-1.56a9.92 9.92 0 0 0 1.5-.3 4 4 0 0 0 1.91-.82 20.09 20.09 0 0 1 -.2 3.81z"/>
        <path d="m20.27 14.21h6.3a2.65 2.65 0 0 0 -.87-2.37 3.68 3.68 0 0 0 -4.7-.77c-1.22.65-2.89 3.36-1.86 7.19s5.55 4.65 8.28 3.76a5.55 5.55 0 0 0 3.36-2.72 7 7 0 0 0 .35-2h-10.86v-3.1z"/>
        <path d="m19.45.48a15.61 15.61 0 1 0 8 25.3 10 10 0 0 1 -5.64-.3c-7-2.42-8.28-8.89-6.54-13.42a8.14 8.14 0 0 1 12.07-3.6c4.16 3 3.79 8.66 3.78 8.85a15.61 15.61 0 0 0 -11.67-16.83zm-12.3 17.32a2 2 0 1 1 2-2 2 2 0 0 1 -2 2z"/>
      </g>
</svg>